<svg width="330" height="278" viewBox="0 0 330 278" fill="none" xmlns="http://www.w3.org/2000/svg">
<g clip-path="url(#clip0_106_29)">
<path d="M268.153 134.077C268.153 137.98 267.989 141.844 267.661 145.669C267.402 148.654 267.05 151.612 266.603 154.544C266.128 157.648 265.546 160.715 264.857 163.744V163.748C264.406 165.742 263.912 167.719 263.373 169.68C261.809 175.381 259.865 180.971 257.553 186.412C257.05 187.595 256.531 188.771 255.995 189.938C253.969 194.359 251.701 198.665 249.201 202.836C242.188 214.549 233.435 225.128 223.241 234.208C222.137 235.189 221.019 236.154 219.885 237.102C195.817 257.209 165.438 268.201 134.076 268.153C60.0272 268.153 3.8147e-06 208.126 3.8147e-06 134.077C3.8147e-06 60.0272 60.0272 4.39934e-05 134.076 4.39934e-05C164.359 -0.0477037 193.757 10.2024 217.445 29.0674C218.555 29.9473 219.651 30.8469 220.734 31.7664C226.016 36.246 230.945 41.1253 235.479 46.3612H235.482C256.597 70.7011 268.201 101.854 268.153 134.077Z" fill="#F2F2F2"/>
<path d="M39.5792 157.236C26.8068 149.635 17.1668 135.428 18.4183 120.617C30.0954 131.794 45.3492 138.479 61.4809 139.491C67.7037 139.859 74.6632 139.62 79.2439 143.848C82.0941 146.479 83.4209 150.439 83.6385 154.312C83.8561 158.185 83.0803 162.036 82.3085 165.838L82.5741 166.769C67.7109 166.825 52.3516 164.838 39.5792 157.236Z" fill="#E6E6E6"/>
<path d="M18.7298 120.602C23.8473 131.789 32.3599 141.08 43.0584 147.155C45.3584 148.442 47.8035 149.548 50.402 150.061C52.9386 150.541 55.5576 150.334 57.9868 149.46C60.2683 148.69 62.5128 147.639 64.9416 147.438C67.5016 147.225 69.8716 148.213 71.7337 149.943C74.012 152.06 75.3939 154.869 76.6498 157.662C78.0443 160.764 79.4436 164.009 82.1172 166.24C82.4411 166.51 82.0028 166.997 81.6793 166.727C77.0277 162.846 76.2684 156.346 72.5502 151.775C70.8152 149.642 68.4268 148.019 65.5896 148.061C63.1085 148.099 60.793 149.181 58.4897 149.98C56.0712 150.819 53.6485 151.213 51.0952 150.844C48.4834 150.466 45.9899 149.454 43.6671 148.231C38.4206 145.418 33.6489 141.798 29.5269 137.504C24.7953 132.628 20.9325 126.979 18.1058 120.801C17.931 120.419 18.5561 120.222 18.7298 120.602H18.7298Z" fill="white"/>
<path d="M39.4984 145.401C38.2356 147.058 36.4251 148.212 34.3901 148.657C32.3551 149.102 30.2282 148.809 28.3893 147.83C28.0179 147.631 28.3101 147.045 28.682 147.244C30.3927 148.158 32.3739 148.431 34.268 148.013C36.1622 147.595 37.8444 146.513 39.0112 144.964C39.2651 144.627 39.7509 145.067 39.4984 145.401L39.4984 145.401Z" fill="white"/>
<path d="M56.8814 150.002C56.35 145.777 54.2456 141.908 50.988 139.166C50.665 138.894 51.1033 138.407 51.4259 138.678C54.8105 141.538 56.9922 145.57 57.5356 149.967C57.5871 150.386 56.9327 150.419 56.8814 150.002V150.002Z" fill="white"/>
<path d="M25.6076 132.321C26.2298 131.782 26.7083 131.096 27.0002 130.327C27.2921 129.557 27.3882 128.726 27.2799 127.91C27.2231 127.492 27.8777 127.46 27.9341 127.875C28.0495 128.778 27.9422 129.695 27.6216 130.546C27.301 131.397 26.7768 132.157 26.0949 132.759C26.0354 132.821 25.9544 132.858 25.8685 132.863C25.7826 132.867 25.6981 132.839 25.6323 132.783C25.5681 132.725 25.5295 132.644 25.5249 132.557C25.5202 132.471 25.55 132.386 25.6076 132.321V132.321Z" fill="white"/>
<path d="M59.7615 91.9245C59.8044 92.1847 59.8473 92.4449 59.8951 92.7076C60.4899 96.203 61.3676 99.6442 62.5197 102.997C62.6046 103.258 62.6947 103.521 62.7869 103.779C65.6486 111.828 69.9798 119.276 75.5604 125.744C77.7834 128.315 80.1988 130.714 82.7857 132.919C86.3586 135.965 90.4748 138.982 92.7655 142.914C93.0091 143.322 93.2272 143.744 93.4186 144.179L83.6895 166.373C83.6421 166.412 83.5996 166.454 83.552 166.493L83.2041 167.397C83.0627 167.293 82.9184 167.181 82.777 167.077C82.6947 167.017 82.6147 166.952 82.5324 166.891C82.4783 166.85 82.4242 166.808 82.3729 166.773C82.3549 166.759 82.3369 166.745 82.3239 166.734C82.2726 166.699 82.2287 166.662 82.1825 166.629C81.3738 166.009 80.568 165.382 79.7652 164.749C79.7601 164.746 79.7601 164.746 79.7572 164.739C73.6525 159.896 67.8984 154.5 63.1463 148.403C63.0033 148.219 62.8553 148.034 62.7168 147.84C60.59 145.08 58.6924 142.15 57.0429 139.08C56.1451 137.397 55.333 135.669 54.61 133.903C52.7504 129.337 51.6206 124.507 51.2621 119.589C50.5488 109.787 52.9784 99.8654 59.2749 92.4838C59.4361 92.295 59.5952 92.111 59.7615 91.9245Z" fill="#E6E6E6"/>
<path d="M60.0213 92.0979C57.3715 104.112 58.5746 116.655 63.4597 127.946C64.521 130.359 65.8075 132.714 67.5734 134.688C69.3094 136.599 71.5255 138.01 73.9913 138.775C76.2761 139.534 78.7012 140.046 80.7617 141.348C82.9335 142.719 84.2312 144.935 84.6764 147.437C85.2212 150.499 84.6334 153.574 83.9541 156.561C83.1998 159.877 82.3638 163.31 83.1554 166.701C83.2514 167.112 82.6082 167.236 82.5125 166.826C81.1352 160.927 84.4424 155.28 84.2256 149.391C84.1245 146.644 83.1947 143.91 80.9035 142.236C78.9 140.772 76.3997 140.242 74.0797 139.493C71.6435 138.707 69.4718 137.563 67.6554 135.731C65.7973 133.857 64.416 131.547 63.2977 129.172C60.8019 123.768 59.1715 118.005 58.466 112.094C57.6234 105.352 57.9402 98.5163 59.4028 91.8816C59.4935 91.471 60.1114 91.6899 60.0213 92.0979Z" fill="white"/>
<path d="M61.6727 124.403C59.667 124.966 57.5267 124.797 55.634 123.927C53.7413 123.057 52.2195 121.543 51.3403 119.654C51.1637 119.271 51.7501 118.979 51.927 119.362C52.7424 121.122 54.1601 122.533 55.9243 123.339C57.6884 124.146 59.6827 124.295 61.5473 123.76C61.9526 123.645 62.0757 124.288 61.6727 124.403H61.6727Z" fill="white"/>
<path d="M72.7821 138.543C74.9014 134.849 75.5508 130.493 74.6008 126.342C74.5064 125.931 75.1494 125.806 75.2438 126.217C76.2243 130.538 75.5393 135.07 73.3254 138.908C73.1142 139.274 72.572 138.906 72.7821 138.543Z" fill="white"/>
<path d="M58.4571 105.596C59.2785 105.54 60.0732 105.281 60.7697 104.842C61.4662 104.403 62.0428 103.798 62.4478 103.081C62.6543 102.713 63.1963 103.081 62.9911 103.447C62.54 104.237 61.9024 104.905 61.1339 105.391C60.3654 105.878 59.4895 106.169 58.5826 106.239C58.4976 106.253 58.4106 106.234 58.3393 106.185C58.2679 106.137 58.2175 106.064 58.1984 105.98C58.1822 105.895 58.2003 105.807 58.2487 105.735C58.2972 105.663 58.3721 105.613 58.4571 105.596V105.596Z" fill="white"/>
<path d="M92.8759 31.075L109.286 223.179L76.4655 225.646V33.5191C80.3764 30.9313 85.9904 30.5264 92.8759 31.075Z" fill="#CCCCCC"/>
<path d="M173.88 31.075L157.47 223.179L190.291 225.646V33.5191C186.38 30.9313 180.766 30.5264 173.88 31.075Z" fill="#CCCCCC"/>
<path d="M185.377 233.586H81.0306C79.3574 233.584 77.7533 232.919 76.5702 231.736C75.3871 230.553 74.7216 228.948 74.7197 227.275V36.3384C74.7216 34.6653 75.3871 33.0612 76.5702 31.8781C77.7533 30.6949 79.3574 30.0294 81.0306 30.0275H185.377C187.05 30.0294 188.654 30.6949 189.837 31.8781C191.02 33.0612 191.686 34.6653 191.687 36.3384V227.275C191.686 228.948 191.02 230.553 189.837 231.736C188.654 232.919 187.05 233.584 185.377 233.586ZM81.0306 32.1225C79.9129 32.1237 78.8412 32.5683 78.0508 33.3587C77.2605 34.1491 76.8159 35.2207 76.8146 36.3384V227.275C76.8159 228.393 77.2605 229.465 78.0508 230.255C78.8412 231.046 79.9128 231.49 81.0306 231.491H185.377C186.494 231.49 187.566 231.046 188.356 230.255C189.147 229.465 189.591 228.393 189.593 227.275V36.3384C189.591 35.2207 189.147 34.1491 188.356 33.3587C187.566 32.5683 186.494 32.1237 185.377 32.1225L81.0306 32.1225Z" fill="#CCCCCC"/>
<path d="M190.64 61.8009H75.7672V63.8958H190.64V61.8009Z" fill="#CCCCCC"/>
<path d="M190.64 96.7166H75.7672V98.8116H190.64V96.7166Z" fill="#CCCCCC"/>
<path d="M113.045 31.075H110.95V126.395H113.045V31.075Z" fill="#CCCCCC"/>
<path d="M155.458 31.075H153.363V126.395H155.458V31.075Z" fill="#CCCCCC"/>
<path d="M203.733 239.347H66.1653C63.6651 239.347 61.2672 238.354 59.4993 236.586C57.7313 234.818 56.7381 232.42 56.7381 229.92C56.7381 227.42 57.7313 225.022 59.4993 223.254C61.2672 221.486 63.6651 220.493 66.1653 220.493H203.733C206.234 220.493 208.632 221.486 210.399 223.254C212.167 225.022 213.161 227.42 213.161 229.92C213.161 232.42 212.167 234.818 210.399 236.586C208.632 238.354 206.234 239.347 203.733 239.347Z" fill="#CCCCCC"/>
<path d="M190.64 121.507H76.4655V128.49H190.64V121.507Z" fill="#CCCCCC"/>
<path d="M113.37 143.731L113.225 143.661C105.441 139.901 95.2491 139.905 80.1758 143.673L80.0149 143.714L79.9666 143.555C78.3721 138.326 76.5658 132.405 79.9591 129.491C80.0067 120.942 87.5059 114 96.7172 114C105.927 114 113.425 120.938 113.475 129.485C118.523 133.345 116.117 139.048 113.451 143.592L113.37 143.731Z" fill="#2F2E41"/>
<path d="M161.208 125.424C161.069 126.117 160.779 126.771 160.359 127.34C159.94 127.908 159.401 128.378 158.78 128.716C158.159 129.054 157.472 129.251 156.767 129.295C156.061 129.338 155.355 129.226 154.698 128.967L127.192 156.608L124.738 148.026L152.056 122.357C152.564 121.282 153.45 120.43 154.544 119.963C155.639 119.497 156.866 119.448 157.994 119.826C159.123 120.204 160.073 120.983 160.665 122.014C161.257 123.046 161.451 124.26 161.208 125.424L161.208 125.424Z" fill="#FFB6B6"/>
<path d="M93.2278 152.034C93.2278 152.034 90.7323 157.69 96.8899 161.177C103.048 164.665 124.569 159.846 128.061 159.174C131.553 158.501 144.595 138.983 144.595 138.983L142.751 129.411L125.454 144.426L93.2278 152.034Z" fill="#05445E"/>
<path d="M88.686 183.308L89.0352 189.942C89.0352 189.942 88.0046 195.818 88.8522 197.086C89.6934 198.348 112.647 198.507 112.647 198.507C112.647 198.507 114.164 190.331 115.47 183.175L88.686 183.308Z" fill="#FFB6B6"/>
<path d="M154.682 271.023L159.48 270.054L158.107 250.671L151.025 252.102L154.682 271.023Z" fill="#FFB6B6"/>
<path d="M161.556 245.799L166.017 243.793L160.229 225.247L153.645 228.208L161.556 245.799Z" fill="#FFB6B6"/>
<path d="M165.442 235.349L157.042 240.106L136.325 206.816C121.782 216.614 107.561 221.306 93.2251 223.81C88.3781 224.673 83.4363 224.236 82.5057 219.302C82.4622 219.072 82.4276 218.84 82.4017 218.607C81.8293 213.218 88.5323 206.311 89.3843 199.718L107.729 198.617L109.991 201.517L131.207 188.474C135.473 185.851 141.085 187.27 143.74 191.643C143.88 191.874 144.011 192.11 144.131 192.353L165.442 235.349Z" fill="#2F2E41"/>
<path d="M160.3 257.744L150.689 258.637L133.261 222.994C115.979 225.967 99.6755 226.919 85.5735 223.323C80.7989 222.123 77.8803 217.193 79.0547 212.312C79.1096 212.084 79.1731 211.858 79.2451 211.635C80.9329 206.485 85.3508 202.842 88.8315 197.178L114.256 197.564L111.416 207.362L136.114 204.166C141.081 203.524 145.618 207.119 146.246 212.196C146.279 212.464 146.301 212.734 146.311 213.004L160.3 257.744Z" fill="#2F2E41"/>
<path d="M98.6133 138.664C104.315 138.664 108.937 134.041 108.937 128.34C108.937 122.638 104.315 118.016 98.6133 118.016C92.9117 118.016 88.2895 122.638 88.2895 128.34C88.2895 134.041 92.9117 138.664 98.6133 138.664Z" fill="#FFB6B6"/>
<path d="M92.561 142.39L102.027 143.504C102.426 143.551 102.801 143.721 103.099 143.991C103.396 144.261 103.603 144.617 103.688 145.01L105.194 151.899L114.578 162.95C114.578 162.95 117.948 169.268 116.684 176.429C115.42 183.59 114.865 188.91 114.865 188.91C114.865 188.91 89.6922 198.349 88.8497 197.085C88.0073 195.821 87.7339 190.081 87.7339 190.081L84.3641 152.593C84.3641 152.593 88.1551 146.274 90.2612 146.274C91.6205 146.229 91.4461 143.169 92.561 142.39Z" fill="#05445E"/>
<path d="M115.121 191.215C116.448 191.215 117.524 189.924 117.524 188.331C117.524 186.738 116.448 185.447 115.121 185.447C113.794 185.447 112.717 186.738 112.717 188.331C112.717 189.924 113.794 191.215 115.121 191.215Z" fill="#05445E"/>
<path d="M152.3 266.033L159.616 262.366L160.995 265.583L170.247 267.453C170.704 267.545 171.119 267.781 171.432 268.127C171.746 268.472 171.941 268.908 171.988 269.372C172.036 269.835 171.935 270.302 171.698 270.704C171.462 271.106 171.104 271.422 170.675 271.605L161.736 275.437L158.832 272.916L159.594 276.355L156.224 277.8L152.3 266.033Z" fill="#2F2E41"/>
<path d="M159.462 244.256L166.712 240.461L168.147 243.654L177.43 245.361C177.889 245.445 178.308 245.674 178.628 246.013C178.947 246.353 179.15 246.786 179.206 247.248C179.262 247.711 179.168 248.18 178.939 248.586C178.71 248.992 178.357 249.314 177.932 249.505L169.062 253.493L166.113 251.023L166.936 254.449L163.591 255.953L159.462 244.256Z" fill="#2F2E41"/>
<path d="M92.715 125.101C89.9875 125.106 87.3255 124.266 85.0944 122.697L85.0199 122.645V122.554C85.0229 119.916 86.0722 117.387 87.9378 115.521C89.8033 113.656 92.3326 112.606 94.9709 112.603H99.1608C101.799 112.606 104.328 113.656 106.194 115.521C108.059 117.387 109.109 119.916 109.112 122.554C109.109 123.158 108.871 123.737 108.447 124.168C108.024 124.598 107.449 124.847 106.846 124.86L92.9504 125.099C92.872 125.101 92.7932 125.101 92.715 125.101Z" fill="#2F2E41"/>
<path d="M109.81 120.643C111.146 119.872 111.369 117.757 110.309 115.92C109.248 114.083 107.305 113.219 105.969 113.991C104.633 114.762 104.41 116.877 105.471 118.714C106.531 120.551 108.474 121.414 109.81 120.643Z" fill="#2F2E41"/>
<path d="M88.9154 118.594C90.4153 117.094 90.7469 114.994 89.6561 113.903C88.5652 112.812 86.465 113.144 84.9651 114.643C83.4652 116.143 83.1336 118.244 84.2244 119.334C85.3153 120.425 87.4155 120.094 88.9154 118.594Z" fill="#2F2E41"/>
<path d="M180.283 212.986H169.979C169.746 212.986 169.517 213.036 169.306 213.133C169.095 213.231 168.907 213.373 168.757 213.551C168.377 213.481 167.986 213.502 167.616 213.613C167.245 213.724 166.907 213.92 166.627 214.187C166.348 214.454 166.136 214.784 166.008 215.149C165.881 215.513 165.842 215.903 165.894 216.286C165.947 216.669 166.089 217.034 166.31 217.351C166.531 217.668 166.824 217.928 167.165 218.11C167.506 218.292 167.885 218.391 168.272 218.398C168.658 218.405 169.04 218.32 169.388 218.15L170.242 220.928C170.344 221.257 170.548 221.545 170.825 221.749C171.102 221.954 171.437 222.064 171.781 222.064H178.481C178.825 222.064 179.161 221.954 179.438 221.749C179.715 221.545 179.919 221.257 180.02 220.928L181.822 215.07C181.897 214.829 181.913 214.574 181.871 214.326C181.828 214.077 181.728 213.842 181.579 213.64C181.429 213.437 181.234 213.272 181.009 213.159C180.784 213.045 180.535 212.986 180.283 212.986ZM168.323 217.7C167.86 217.7 167.415 217.516 167.088 217.188C166.761 216.861 166.577 216.417 166.577 215.954C166.577 215.491 166.761 215.047 167.088 214.719C167.415 214.392 167.86 214.208 168.323 214.208C168.354 214.208 168.384 214.216 168.416 214.218C168.346 214.499 168.355 214.793 168.44 215.07L169.177 217.467C168.918 217.617 168.623 217.698 168.323 217.7Z" fill="#3F3D56"/>
<path d="M134.269 205.407C133.566 205.472 132.856 205.382 132.191 205.143C131.526 204.904 130.921 204.523 130.42 204.025C129.918 203.527 129.532 202.926 129.288 202.262C129.044 201.599 128.948 200.891 129.007 200.186L94.6368 181.768L102.154 176.954L134.582 195.759C135.758 195.938 136.828 196.541 137.589 197.456C138.35 198.371 138.749 199.533 138.711 200.722C138.672 201.911 138.199 203.045 137.38 203.908C136.562 204.772 135.455 205.305 134.269 205.407Z" fill="#FFB6B6"/>
<path d="M89.2735 147.919C89.2735 147.919 83.14 147.151 81.5658 154.051C79.9916 160.95 90.7821 180.184 92.4285 183.336C94.0749 186.488 116.514 193.382 116.514 193.382L125.155 188.869L105.808 176.607L89.2735 147.919Z" fill="#05445E"/>
<path d="M132.505 119.412H134.6C135.619 119.412 136.596 119.817 137.316 120.537C138.036 121.257 138.441 122.234 138.441 123.253H128.665C128.665 122.234 129.069 121.257 129.789 120.537C130.51 119.817 131.487 119.412 132.505 119.412Z" fill="#CCCCCC"/>
<path d="M66.0751 47.7527C77.5376 47.7527 86.8297 38.4606 86.8297 26.9982C86.8297 15.5357 77.5376 6.24359 66.0751 6.24359C54.6127 6.24359 45.3206 15.5357 45.3206 26.9982C45.3206 38.4606 54.6127 47.7527 66.0751 47.7527Z" fill="#FF6584"/>
<path d="M129.621 25.9166C124.128 20.1546 117.749 14.8982 110.197 12.1205C108.094 11.3435 105.912 10.7954 103.691 10.4856C103.674 10.4832 103.657 10.4868 103.639 10.4854C103.603 10.4761 103.566 10.4689 103.529 10.4638C100.423 10.0681 97.2699 10.2585 94.2338 11.025C92.7491 11.3976 91.3007 11.9022 89.9058 12.5327C88.506 13.2156 87.1497 13.9843 85.8447 14.8343C83.0823 16.4878 80.0408 17.6225 76.8704 18.1822C75.279 18.4687 73.6672 18.6269 72.0504 18.6553C70.6476 18.6834 69.3247 18.7322 67.9956 19.239C66.5758 19.7728 65.3005 20.6312 64.2714 21.7455C63.2423 22.8598 62.4879 24.1992 62.0683 25.6568C62.036 25.7866 62.0457 25.9233 62.0962 26.0473C62.1466 26.1712 62.2351 26.2758 62.3489 26.3462C62.7084 26.6037 63.0589 26.8958 63.4366 27.1252C63.7727 27.279 64.1316 27.3769 64.4992 27.415C65.0997 27.5418 65.7011 27.6648 66.3032 27.7841C68.5213 28.2236 70.7486 28.6126 72.9852 28.9512C77.5107 29.6363 82.0608 30.1189 86.6352 30.399C95.7992 30.954 104.995 30.6777 114.109 29.5733C119.231 28.9529 124.318 28.0729 129.351 26.9369C129.453 26.9071 129.546 26.8515 129.62 26.7754C129.694 26.6994 129.747 26.6055 129.774 26.5028C129.801 26.4001 129.801 26.2922 129.774 26.1895C129.748 26.0868 129.695 25.9928 129.621 25.9166Z" fill="#E6E6E6"/>
<path d="M67.0601 39.7932C64.9566 39.0162 62.7754 38.4681 60.5545 38.1584C60.5366 38.1559 60.5197 38.1596 60.5019 38.1581C60.4658 38.1488 60.4292 38.1416 60.3922 38.1366C57.2859 37.7408 54.133 37.9312 51.0969 38.6977C49.6121 39.0703 48.1637 39.5749 46.7688 40.2055C45.3691 40.8884 44.0128 41.657 42.7077 42.507C39.9453 44.1606 36.9039 45.2952 33.7335 45.8549C32.1421 46.1414 30.5302 46.2996 28.9135 46.328C27.5107 46.3561 26.1877 46.4049 24.8586 46.9117C23.4389 47.4456 22.1636 48.3039 21.1344 49.4182C20.1053 50.5325 19.3509 51.8719 18.9314 53.3295C18.899 53.4593 18.9088 53.596 18.9592 53.72C19.0096 53.8439 19.0981 53.9485 19.2119 54.0189C19.5714 54.2764 19.9219 54.5685 20.2997 54.7979C20.6357 54.9518 20.9946 55.0496 21.3622 55.0877C21.9628 55.2145 22.5641 55.3375 23.1662 55.4568C25.3843 55.8963 27.6117 56.2853 29.8482 56.6239C34.3738 57.309 38.9238 57.7916 43.4983 58.0717C52.6622 58.6267 61.8576 58.3504 70.9717 57.246C76.0939 56.6256 81.1813 55.7456 86.2143 54.6096C86.3162 54.5798 86.4087 54.5242 86.4828 54.4481C86.5569 54.372 86.61 54.2781 86.6371 54.1755C86.6642 54.0728 86.6643 53.9649 86.6375 53.8622C86.6106 53.7595 86.5576 53.6655 86.4837 53.5893C80.991 47.8274 74.6119 42.5709 67.0601 39.7932Z" fill="#E6E6E6"/>
<path d="M216.73 194.515L200.769 173.548L188.176 180.669L214.862 212.359L216.73 194.515Z" fill="#3F3D56"/>
<path d="M253.495 160.431C253.85 169.218 255.211 177.935 257.553 186.412C257.05 187.595 256.531 188.771 255.995 189.938C253.969 194.359 251.701 198.665 249.201 202.836C242.188 214.549 233.435 225.127 223.241 234.208C222.138 235.189 221.019 236.154 219.885 237.102C213.423 228.192 209.934 218.36 208.555 208.241C208.381 206.956 208.238 205.657 208.129 204.365V204.358C207.864 201.219 207.779 198.067 207.874 194.917C207.878 194.666 207.885 194.411 207.895 194.156C208.018 190.79 208.321 187.417 208.779 184.076V184.072C208.831 183.688 208.883 183.304 208.943 182.92C209.11 181.768 209.299 180.616 209.505 179.47C210.704 172.865 212.377 166.355 214.512 159.991V159.987C214.571 159.802 214.631 159.621 214.697 159.439C214.927 158.748 215.161 158.064 215.402 157.379C215.417 157.326 215.436 157.273 215.458 157.222C215.769 156.328 216.087 155.441 216.411 154.562C216.499 154.317 216.589 154.073 216.684 153.828C217.05 152.847 217.424 151.873 217.804 150.913C217.923 150.606 218.045 150.298 218.168 149.995C218.262 149.761 218.353 149.527 218.45 149.296V149.293C219.006 147.921 219.568 146.575 220.137 145.257C221.733 141.548 223.374 138.06 224.973 134.845L224.976 134.841C231.614 121.528 237.647 112.883 237.647 112.883L260.304 120.215C257.601 125.009 255.51 132.079 254.365 140.421C253.482 147.051 253.191 153.746 253.495 160.427L253.495 160.431Z" fill="#3F3D56"/>
<path d="M215.839 158.298C215.706 157.987 215.556 157.683 215.402 157.379C214.606 155.837 213.58 154.425 212.361 153.189C212.18 153.004 211.991 152.819 211.795 152.645C209.692 150.708 207.135 149.332 204.359 148.645C201.584 147.957 198.68 147.981 195.916 148.713L195.902 148.72L195.797 148.748L195.821 148.867C195.926 149.42 196.078 149.963 196.275 150.49C196.328 150.634 196.387 150.77 196.446 150.906C196.471 150.969 196.502 151.025 196.53 151.087C196.53 151.087 196.527 151.091 196.534 151.091C196.534 151.094 196.537 151.098 196.537 151.101C196.604 151.231 196.666 151.363 196.736 151.489C196.593 151.353 196.457 151.213 196.324 151.07C196.195 150.937 196.076 150.798 195.958 150.658C195.551 150.183 195.183 149.677 194.858 149.143L194.802 149.048L194.704 149.087C193.387 149.543 192.13 150.159 190.961 150.92L190.835 151.004C189.943 151.589 188.938 151.981 187.885 152.153C186.832 152.325 185.754 152.274 184.722 152.002C183.095 151.583 181.398 151.506 179.74 151.777C178.081 152.048 176.497 152.661 175.088 153.577C174.155 154.185 173.311 154.921 172.582 155.763C172.519 155.836 172.456 155.913 172.393 155.986C172.26 156.147 172.135 156.311 172.012 156.478C170.7 158.233 169.894 160.314 169.684 162.494L169.677 162.575L169.743 162.62C170.924 163.43 172.26 163.986 173.667 164.254C172.784 164.378 171.889 164.4 171 164.321H170.996C170.593 164.287 170.192 164.231 169.795 164.153L169.722 164.139H169.718L169.628 164.122L169.642 164.289C169.746 166.423 170.417 168.49 171.586 170.277L171.621 170.326C171.634 170.344 171.646 170.363 171.656 170.382C172.152 171.14 172.564 171.948 172.885 172.795C173.702 174.897 173.881 177.193 173.402 179.397C172.86 181.754 173.04 184.22 173.919 186.474C174.799 188.727 176.336 190.663 178.332 192.03C180.085 193.236 182.128 193.953 184.25 194.107C184.54 194.132 184.833 194.146 185.127 194.146C186.806 194.151 188.467 193.805 190.004 193.13L190.06 193.109L190.074 193.046C190.37 192.092 190.785 191.179 191.31 190.329C191.138 190.999 191.052 191.688 191.052 192.379V192.609L191.251 192.494C191.422 192.393 191.597 192.285 191.754 192.183C192.697 191.567 193.551 190.825 194.292 189.977C194.582 189.641 194.875 189.317 195.183 188.992L195.186 188.989C195.783 188.353 196.415 187.732 197.071 187.138C198.468 185.884 199.962 184.743 201.541 183.727C203.118 182.714 204.767 181.818 206.474 181.045H206.478C206.67 180.954 206.865 180.867 207.057 180.783C207.908 180.413 208.726 179.974 209.505 179.471C209.533 179.453 209.557 179.439 209.582 179.422C212.957 177.212 215.439 173.875 216.584 170.007C217.73 166.139 217.466 161.989 215.839 158.298L215.839 158.298Z" fill="#05445E"/>
<path opacity="0.15" d="M173.977 184.355C173.882 184.779 173.81 185.208 173.761 185.641C173.111 183.587 173.017 181.397 173.488 179.294C173.561 178.973 173.615 178.647 173.658 178.32C174.303 180.267 174.413 182.351 173.977 184.355Z" fill="black"/>
<path opacity="0.15" d="M174.241 169.209C173.207 169.353 172.158 169.357 171.123 169.224C170.852 168.712 170.617 168.182 170.422 167.637C171.575 168.415 172.875 168.95 174.241 169.209Z" fill="black"/>
<path opacity="0.15" d="M171.04 164.208C170.658 165.185 170.404 166.206 170.285 167.248C169.967 166.256 169.779 165.227 169.726 164.186L169.717 164.018L169.882 164.05C170.265 164.122 170.652 164.175 171.04 164.208Z" fill="black"/>
<path opacity="0.15" d="M175.179 153.473C176.586 152.556 178.169 151.942 179.826 151.671C181.484 151.399 183.18 151.476 184.806 151.897C185.839 152.169 186.917 152.222 187.971 152.05C189.025 151.878 190.031 151.486 190.923 150.9L191.05 150.816C192.217 150.054 193.473 149.437 194.79 148.979L194.891 148.944L194.946 149.035C195.467 149.896 196.098 150.686 196.823 151.383C196.383 150.563 196.074 149.678 195.909 148.761L195.885 148.64L196.004 148.609C198.597 147.923 201.315 147.859 203.936 148.423C206.558 148.988 209.009 150.164 211.089 151.856C213.17 153.547 214.821 155.707 215.908 158.159C216.995 160.61 217.487 163.284 217.344 165.962C216.794 163.779 215.816 161.726 214.467 159.924C213.118 158.121 211.425 156.604 209.486 155.461C207.547 154.318 205.4 153.57 203.169 153.263C200.939 152.955 198.67 153.093 196.494 153.669L196.375 153.7L196.398 153.821C196.563 154.738 196.872 155.623 197.312 156.444C196.587 155.746 195.956 154.957 195.435 154.095L195.38 154.005L195.28 154.039C193.962 154.497 192.706 155.114 191.539 155.877L191.413 155.96C190.52 156.546 189.514 156.938 188.46 157.11C187.406 157.282 186.328 157.23 185.296 156.957C182.593 156.255 179.73 156.513 177.196 157.687C174.662 158.86 172.613 160.876 171.399 163.391C170.859 163.131 170.335 162.838 169.83 162.514L169.762 162.471L169.77 162.39C169.944 160.593 170.52 158.858 171.457 157.314C172.393 155.771 173.665 154.458 175.179 153.473Z" fill="black"/>
<path d="M304.982 64.2589L304.65 64.039L304.41 64.3532C302.545 66.7008 301.062 69.3271 300.014 72.1359C300.158 68.9001 300.724 65.697 301.697 62.6074L301.801 62.2827L301.501 62.1116C297.594 59.8995 293.432 58.1735 289.106 56.972L288.635 56.8463C285.319 55.9366 282.233 54.3383 279.577 52.1557C276.921 49.973 274.754 47.255 273.219 44.1789C269.652 37.1191 264.017 31.3152 257.065 27.5415C250.113 23.7678 242.176 22.2038 234.313 23.0584H234.309C234.225 23.0653 234.138 23.0758 234.054 23.0863C233.911 23.1003 233.771 23.1177 233.632 23.1352C233.345 23.1736 233.066 23.212 232.787 23.2539C232.549 23.2888 232.308 23.3272 232.071 23.3691C231.945 23.3866 231.823 23.4075 231.701 23.432C231.579 23.4529 231.453 23.4739 231.331 23.4983H231.327C228.983 23.9417 226.685 24.6022 224.463 25.471H224.459V25.4745L223.897 25.6945C223.318 25.9319 222.743 26.1833 222.172 26.4487C222.043 26.508 221.918 26.5709 221.788 26.6302C221.753 26.6477 221.715 26.6651 221.68 26.6861C221.313 26.8607 220.95 27.0422 220.591 27.2343C220.538 27.2587 220.486 27.2866 220.434 27.3146L220.098 27.4926C219.362 27.8907 218.638 28.3132 217.927 28.7601C217.867 28.795 217.811 28.8299 217.752 28.8683C217.689 28.9102 217.623 28.9521 217.56 28.994C217.522 29.015 217.483 29.0429 217.445 29.0673C217.337 29.1337 217.232 29.2035 217.127 29.2768C216.918 29.413 216.708 29.5527 216.502 29.6958C216.289 29.839 216.08 29.9891 215.87 30.1393L215.661 30.2894L215.699 30.5478C215.734 30.7608 215.765 30.9737 215.804 31.1832C215.839 31.3927 215.874 31.5987 215.912 31.8047C215.971 32.1504 216.038 32.4926 216.104 32.8243C216.149 33.0442 216.191 33.2607 216.24 33.4737C216.286 33.6937 216.335 33.9136 216.387 34.1336C216.488 34.5875 216.596 35.0275 216.712 35.4604C216.767 35.6769 216.827 35.8934 216.89 36.1064C216.925 36.2355 216.96 36.3647 216.998 36.4904C217.026 36.5777 217.054 36.665 217.082 36.7523C217.089 36.7802 217.096 36.8117 217.106 36.8431C217.114 36.8727 217.123 36.9018 217.134 36.9304C217.173 37.0596 217.211 37.1853 217.249 37.3075C217.27 37.3738 217.291 37.4401 217.316 37.503C217.365 37.6531 217.417 37.8068 217.469 37.9534C217.525 38.121 217.585 38.2886 217.644 38.4527C217.658 38.4946 217.672 38.533 217.686 38.5749C217.696 38.6063 217.707 38.6378 217.721 38.6692C217.735 38.7041 217.749 38.7425 217.763 38.7774C217.822 38.9345 217.881 39.0951 217.944 39.2523C217.965 39.3081 217.986 39.3675 218.011 39.4234C218.577 40.8458 219.272 42.2132 220.088 43.5085C219.184 42.7334 218.313 41.9117 217.476 41.0434C216.184 39.701 214.994 38.2643 213.915 36.7453C213.828 36.6266 213.74 36.5044 213.66 36.3822C213.496 36.1483 213.335 35.9143 213.178 35.6769C213.011 35.4325 212.85 35.1776 212.693 34.9262C212.588 34.7586 212.483 34.5875 212.382 34.4199C212.281 34.2593 212.187 34.1022 212.096 33.9416L211.823 33.4737H211.82V33.4772L211.436 33.8543C211.282 34.0044 211.129 34.1546 210.978 34.3047C206.286 39.0264 202.886 44.8761 201.108 51.2912L201.055 51.4832L201.003 51.6823C200.902 52.0384 200.801 52.3841 200.692 52.7367V52.7402C200.588 53.0894 200.476 53.4385 200.357 53.7807C200.249 54.1054 200.137 54.4266 200.018 54.7479C199.98 54.8561 199.938 54.9643 199.893 55.0726C199.819 55.2821 199.739 55.4881 199.659 55.6976C199.62 55.7918 199.582 55.8896 199.544 55.9839C199.449 56.2143 199.355 56.4448 199.261 56.6717C199.247 56.7066 199.229 56.745 199.212 56.78C199.184 56.8498 199.153 56.9196 199.125 56.986C199.051 57.1536 198.974 57.3246 198.901 57.4922C198.849 57.6005 198.8 57.7122 198.751 57.8204C198.73 57.8693 198.706 57.9182 198.685 57.9671C198.555 58.2464 198.423 58.5222 198.283 58.7946C198.126 59.1158 197.965 59.4371 197.794 59.7513C197.644 60.0446 197.487 60.3309 197.323 60.6172C197.04 61.1235 196.743 61.6263 196.436 62.1151C196.317 62.3036 196.199 62.4922 196.076 62.6807C196.049 62.7261 196.021 62.7715 195.993 62.8134C195.891 62.9775 195.787 63.1347 195.678 63.2953C195.605 63.4035 195.532 63.5117 195.458 63.6165C195.336 63.805 195.207 63.9866 195.074 64.1647C195.039 64.2205 195.001 64.2729 194.963 64.3253C194.767 64.5976 194.572 64.863 194.373 65.1283C194.366 65.1318 194.366 65.1353 194.362 65.1388C194.355 65.1388 194.355 65.1423 194.352 65.1458C194.264 65.261 194.177 65.3762 194.086 65.488C193.968 65.6521 193.838 65.8127 193.709 65.9698C193.5 66.2352 193.28 66.504 193.056 66.7659C193.049 66.7729 193.046 66.7798 193.039 66.7833C191.882 68.1426 190.629 69.4168 189.289 70.5961C189.264 70.6171 189.247 70.638 189.222 70.6555C189.034 70.8196 188.845 70.9837 188.65 71.1443C188.57 71.2107 188.489 71.277 188.409 71.3433C188.276 71.4551 188.14 71.5668 188.007 71.668C187.992 71.6841 187.974 71.6982 187.955 71.7099C187.836 71.8077 187.721 71.8985 187.602 71.9893C187.459 72.1045 187.316 72.2127 187.169 72.321C186.478 72.8447 185.768 73.3393 185.04 73.8049C184.931 73.8782 184.816 73.9515 184.704 74.0214C184.638 74.0633 184.572 74.1052 184.509 74.1401C184.243 74.3042 183.978 74.4648 183.713 74.6184C183.447 74.7756 183.175 74.9257 182.906 75.0723C182.33 75.3866 181.761 75.7148 181.206 76.057C180.926 76.2315 180.647 76.4061 180.371 76.5842C179.275 77.2965 178.219 78.0588 177.204 78.8712C176.19 79.684 175.217 80.5475 174.289 81.4584C174.174 81.5702 174.059 81.6854 173.943 81.8041C173.713 82.031 173.489 82.2615 173.276 82.4919C172.934 82.8446 172.606 83.2077 172.281 83.5743C170.569 85.5172 169.053 87.6247 167.756 89.8661C167.105 90.9853 166.513 92.138 165.983 93.3193C165.581 94.2027 165.214 95.107 164.883 96.0218C164.663 96.6328 164.457 97.2496 164.265 97.8723C164.17 98.1831 164.08 98.4973 163.992 98.8115C163.696 99.8765 163.448 100.952 163.245 102.031C163.081 102.897 162.948 103.764 162.847 104.632C162.795 105.068 162.753 105.505 162.714 105.938C162.625 107.002 162.579 108.067 162.577 109.133C162.57 112.332 162.959 115.519 163.734 118.623C163.905 119.307 164.095 119.988 164.303 120.665C164.408 121.004 164.52 121.339 164.631 121.674C164.914 122.512 165.227 123.342 165.571 124.164C165.777 124.656 165.993 125.145 166.22 125.63C167.662 128.716 169.503 131.599 171.695 134.206C172.054 134.635 172.426 135.058 172.809 135.473C172.812 135.473 172.809 135.477 172.809 135.477C173.759 136.513 174.765 137.497 175.822 138.423H175.825C176.248 138.797 176.677 139.159 177.114 139.509C177.117 139.506 177.117 139.509 177.117 139.509C177.557 139.865 178.001 140.208 178.454 140.539C178.681 140.703 178.912 140.868 179.146 141.032C179.603 141.356 180.07 141.669 180.546 141.971H180.549C181.024 142.278 181.506 142.571 181.995 142.851C182.976 143.413 183.982 143.94 185.015 144.418L185.19 144.499L185.368 144.418C187.025 143.673 188.733 143.046 190.479 142.544C190.864 142.432 191.251 142.331 191.635 142.233C192.606 141.992 193.583 141.789 194.568 141.625C193.609 142.106 192.683 142.651 191.796 143.256C191.108 143.72 190.431 144.226 189.75 144.785C189.523 144.97 189.296 145.162 189.069 145.358L188.503 145.847L189.212 146.08C189.47 146.164 189.729 146.248 189.987 146.325C190.34 146.437 190.689 146.538 191.031 146.632C191.778 146.842 192.53 147.027 193.287 147.187C193.472 147.226 193.653 147.264 193.838 147.303C194.198 147.372 194.561 147.442 194.924 147.505C194.939 147.509 194.954 147.511 194.97 147.512C195.347 147.575 195.727 147.634 196.104 147.687C196.806 147.788 197.508 147.868 198.21 147.928C198.287 147.938 198.363 147.941 198.444 147.945C198.615 147.959 198.782 147.973 198.953 147.983C199.331 148.008 199.711 148.025 200.092 148.039C200.12 148.039 200.144 148.043 200.172 148.043C200.364 148.05 200.556 148.057 200.748 148.06C200.748 148.06 200.748 148.064 200.752 148.06C200.944 148.064 201.136 148.067 201.328 148.067H202.389C202.588 148.067 202.787 148.071 202.99 148.071C203.269 148.071 203.552 148.074 203.831 148.078C203.905 148.078 203.981 148.081 204.058 148.081C204.505 148.088 204.952 148.099 205.399 148.109C205.427 148.109 205.455 148.113 205.483 148.113C205.93 148.127 206.377 148.141 206.824 148.161C206.921 148.165 207.019 148.168 207.12 148.175C207.55 148.193 207.979 148.214 208.409 148.238C208.531 148.245 208.657 148.256 208.782 148.263C209.107 148.28 209.435 148.301 209.76 148.326C209.952 148.336 210.141 148.35 210.333 148.367C211.108 148.427 211.879 148.493 212.654 148.57C212.913 148.591 213.171 148.619 213.43 148.647C214.121 148.72 214.815 148.8 215.511 148.888C215.821 148.923 216.132 148.965 216.443 149.006C216.478 149.01 216.513 149.013 216.548 149.02C216.932 149.073 217.312 149.125 217.696 149.181C217.948 149.216 218.199 149.254 218.45 149.293C218.709 149.331 218.967 149.37 219.226 149.415C219.365 149.436 219.505 149.46 219.648 149.485C219.983 149.537 220.322 149.593 220.661 149.656C220.691 149.659 220.721 149.663 220.751 149.67C221.471 149.796 222.193 149.928 222.913 150.071C223.335 150.152 223.754 150.235 224.173 150.323C224.501 150.389 224.83 150.459 225.158 150.529C225.214 150.539 225.27 150.553 225.325 150.567C225.338 150.571 225.351 150.573 225.364 150.574C225.86 150.682 226.359 150.794 226.855 150.913C228.576 151.311 230.295 151.753 232.012 152.24C232.406 152.348 232.801 152.463 233.195 152.578C233.363 152.627 233.527 152.676 233.691 152.725C234.033 152.826 234.372 152.927 234.714 153.036C235.014 153.126 235.318 153.221 235.619 153.319C235.807 153.378 235.996 153.437 236.184 153.5C236.477 153.591 236.771 153.685 237.061 153.786C237.308 153.863 237.553 153.944 237.797 154.031C238.146 154.146 238.499 154.265 238.848 154.39C238.95 154.425 239.054 154.46 239.156 154.499C239.581 154.645 240.007 154.795 240.433 154.953C240.849 155.103 241.264 155.256 241.676 155.41C241.963 155.518 242.249 155.623 242.532 155.735C242.85 155.857 243.167 155.979 243.482 156.105C243.935 156.283 244.393 156.464 244.847 156.649C245.266 156.817 245.681 156.988 246.1 157.166C246.177 157.198 246.257 157.229 246.334 157.264C246.697 157.414 247.06 157.571 247.42 157.728C247.654 157.826 247.884 157.927 248.115 158.029C249.12 158.469 250.125 158.924 251.128 159.394H251.132C251.76 159.691 252.399 159.973 253.042 160.242C253.192 160.305 253.342 160.368 253.495 160.427C253.75 160.536 254.009 160.637 254.267 160.742C254.435 160.808 254.602 160.874 254.773 160.937C255.021 161.035 255.273 161.129 255.524 161.22C255.789 161.318 256.051 161.415 256.32 161.506C256.414 161.541 256.509 161.573 256.606 161.608C256.917 161.712 257.228 161.817 257.542 161.918C257.574 161.929 257.605 161.939 257.64 161.95C257.968 162.054 258.296 162.159 258.628 162.257C258.654 162.267 258.681 162.275 258.708 162.281C259.064 162.39 259.428 162.494 259.787 162.596C260.318 162.742 260.852 162.882 261.386 163.011C261.484 163.036 261.582 163.06 261.68 163.081C261.966 163.151 262.249 163.217 262.535 163.28C262.839 163.35 263.146 163.413 263.45 163.476C263.757 163.538 264.064 163.601 264.368 163.657C264.532 163.689 264.696 163.72 264.857 163.748L265.286 163.821C265.583 163.874 265.88 163.919 266.18 163.968C266.189 163.967 266.197 163.969 266.205 163.971C266.543 164.024 266.879 164.073 267.217 164.114C267.542 164.16 267.867 164.198 268.191 164.237C268.258 164.244 268.328 164.251 268.397 164.258C268.666 164.289 268.935 164.32 269.204 164.345C269.281 164.352 269.358 164.359 269.434 164.366C269.7 164.39 269.965 164.415 270.231 164.432C270.284 164.439 270.337 164.443 270.391 164.443C270.629 164.464 270.866 164.481 271.103 164.492C271.271 164.506 271.435 164.513 271.603 164.523C271.69 164.526 271.774 164.53 271.861 164.533C272.092 164.547 272.322 164.554 272.556 164.561C272.839 164.572 273.122 164.579 273.401 164.586C273.74 164.593 274.082 164.596 274.42 164.596H274.427C274.759 164.596 275.094 164.593 275.426 164.586H275.552L275.918 164.575C276.107 164.572 276.295 164.565 276.48 164.558C276.837 164.544 277.189 164.526 277.542 164.506C277.682 164.499 277.825 164.488 277.964 164.481C278.027 164.478 278.094 164.471 278.156 164.467C278.376 164.453 278.593 164.439 278.813 164.422C279.04 164.404 279.27 164.383 279.497 164.359C279.791 164.331 280.084 164.3 280.377 164.268C280.608 164.244 280.838 164.216 281.065 164.188C281.095 164.185 281.126 164.18 281.156 164.174C281.376 164.149 281.596 164.121 281.812 164.09C282.071 164.055 282.325 164.017 282.58 163.978C282.608 163.975 282.633 163.971 282.661 163.968C283.101 163.898 283.544 163.828 283.987 163.748C284.452 163.664 284.916 163.573 285.377 163.479C285.548 163.444 285.716 163.406 285.887 163.371C285.981 163.35 286.079 163.332 286.17 163.311C286.313 163.28 286.452 163.249 286.592 163.214C286.617 163.21 286.645 163.203 286.669 163.2C286.864 163.158 287.057 163.109 287.252 163.06C287.643 162.966 288.027 162.868 288.411 162.763C288.582 162.721 288.753 162.676 288.918 162.631C288.966 162.617 289.015 162.603 289.061 162.589C289.769 162.39 290.472 162.179 291.17 161.957C291.477 161.859 291.781 161.758 292.084 161.649C292.737 161.426 293.384 161.191 294.026 160.944C294.197 160.881 294.368 160.811 294.539 160.745C294.79 160.644 295.042 160.543 295.29 160.441C295.513 160.347 295.737 160.253 295.964 160.155C296.075 160.11 296.187 160.061 296.299 160.012C296.634 159.865 296.969 159.715 297.301 159.565C297.524 159.46 297.744 159.359 297.964 159.254C298.313 159.087 298.659 158.916 299.005 158.744C299.092 158.699 299.176 158.654 299.26 158.612C299.48 158.5 299.7 158.385 299.923 158.273C300.276 158.085 300.628 157.896 300.977 157.7C301.096 157.638 301.211 157.571 301.33 157.505C301.714 157.288 302.095 157.069 302.472 156.845C303.306 156.346 304.129 155.824 304.94 155.281C305.143 155.148 305.345 155.008 305.544 154.872C305.921 154.614 306.292 154.349 306.662 154.083C306.7 154.055 306.735 154.027 306.773 154.003C306.958 153.867 307.144 153.731 307.329 153.591C307.713 153.301 308.093 153.008 308.474 152.708C308.481 152.704 308.491 152.694 308.502 152.687C308.673 152.55 308.844 152.414 309.012 152.278C309.532 151.856 310.045 151.426 310.548 150.983C310.796 150.77 311.04 150.55 311.281 150.33C311.463 150.166 311.644 150.002 311.822 149.834C312.182 149.495 312.535 149.16 312.884 148.818C313.058 148.65 313.229 148.476 313.404 148.301C313.575 148.127 313.75 147.952 313.921 147.774C313.98 147.715 314.039 147.652 314.099 147.589C314.273 147.404 314.448 147.215 314.623 147.03C314.773 146.87 314.919 146.702 315.069 146.534C315.321 146.255 315.576 145.976 315.824 145.693C315.837 145.677 315.851 145.662 315.865 145.648C315.879 145.63 315.893 145.616 315.904 145.602H315.9C320.976 139.733 324.746 132.854 326.964 125.418C329.181 117.983 329.793 110.162 328.761 102.472C327.729 94.7817 325.076 87.3987 320.976 80.8112C316.877 74.2236 311.425 68.5818 304.982 64.259L304.982 64.2589Z" fill="#05445E"/>
<g opacity="0.15">
<path opacity="0.15" d="M234.31 23.0556C235.006 25.5557 236.053 27.9444 237.42 30.1504C235.132 28.1846 233.087 25.9516 231.33 23.4993C232.317 23.3126 233.31 23.1647 234.31 23.0556Z" fill="black"/>
<path opacity="0.15" d="M200.24 61.7202C197.656 63.1306 195.239 64.8291 193.037 66.7831C196.756 62.3865 199.473 57.2338 201.001 51.6823C201.02 51.6156 201.038 51.5484 201.056 51.4816L201.108 51.2927C202.945 44.6669 206.508 38.6478 211.434 33.851L211.822 33.4737L212.095 33.94C213.605 36.5076 215.412 38.8886 217.479 41.0337C214.312 49.97 208.149 57.4075 200.24 61.7202Z" fill="black"/>
<path opacity="0.15" d="M218.441 37.9374L218.389 38.1263C218.371 38.1931 218.352 38.2603 218.334 38.327C218.232 38.6944 218.124 39.059 218.012 39.4221C216.907 36.5612 216.131 33.584 215.7 30.5479L215.659 30.2902L215.871 30.1389C218.528 28.2297 221.413 26.661 224.46 25.4694C221.725 29.2321 219.686 33.4549 218.441 37.9374Z" fill="black"/>
<path opacity="0.15" d="M182.907 75.0756C185.194 73.8238 187.335 72.3212 189.289 70.5956C185.385 75.1412 182.587 80.5291 181.113 86.3371C179.639 92.1451 179.531 98.2155 180.795 104.073C182.06 109.93 184.664 115.414 188.403 120.097C192.142 124.779 196.914 128.532 202.346 131.062L202.523 131.143L202.699 131.064C205.633 129.738 208.726 128.799 211.902 128.269C209.92 129.279 208.072 130.533 206.402 132.003L205.837 132.491L206.546 132.725C207.158 132.927 207.77 133.113 208.364 133.279C211.859 134.252 215.471 134.735 219.099 134.715C235.579 134.609 252.188 138.419 268.463 146.039C271.254 147.344 274.149 148.414 277.118 149.238C290.056 152.84 303.868 151.545 315.91 145.599C309.121 153.451 300.244 159.216 290.309 162.224C280.374 165.232 269.79 165.36 259.785 162.593C256.817 161.769 253.922 160.699 251.13 159.395C234.855 151.775 218.247 147.965 201.766 148.07C198.139 148.091 194.526 147.607 191.032 146.634C190.437 146.469 189.825 146.283 189.213 146.08L188.505 145.846L189.07 145.358C190.74 143.888 192.587 142.634 194.569 141.624C191.394 142.154 188.3 143.093 185.366 144.419L185.19 144.499L185.013 144.417C178.49 141.381 172.939 136.592 168.98 130.584C165.02 124.577 162.807 117.587 162.589 110.395C162.371 103.204 164.155 96.0926 167.743 89.8559C171.33 83.6192 176.581 78.502 182.907 75.0755L182.907 75.0756Z" fill="black"/>
</g>
</g>
<defs>
<clipPath id="clip0_106_29">
<rect width="329.256" height="277.8" fill="white"/>
</clipPath>
</defs>
</svg>
