<svg width="24" height="24" viewBox="0 0 24 24" fill="none" xmlns="http://www.w3.org/2000/svg">
<path d="M8.73458 11.5156C8.15642 10.0735 8.09391 8.47599 8.55762 6.99314C9.02133 5.51028 9.98281 4.23301 11.2795 3.37721C12.5763 2.52142 14.1287 2.1396 15.6745 2.2963C17.2202 2.45299 18.6644 3.13859 19.7631 4.2372C20.8617 5.33582 21.5473 6.78006 21.7039 8.3258C21.8606 9.87155 21.4788 11.424 20.623 12.7207C19.7672 14.0175 18.49 14.9789 17.0071 15.4426C15.5242 15.9063 13.9268 15.8438 12.4847 15.2657L12.4847 15.2655L11.2502 16.5H9.00024V18.75H6.75024V21H3.00024V17.25L8.73474 11.5155L8.73458 11.5156Z" stroke="#2D2D2D" stroke-width="1.5" stroke-linecap="round" stroke-linejoin="round"/>
<path opacity="0.5" d="M16.875 7.5C17.0821 7.5 17.25 7.33211 17.25 7.125C17.25 6.91789 17.0821 6.75 16.875 6.75C16.6679 6.75 16.5 6.91789 16.5 7.125C16.5 7.33211 16.6679 7.5 16.875 7.5Z" stroke="#2D2D2D" stroke-width="1.5" stroke-linecap="round" stroke-linejoin="round"/>
<path d="M16.875 8.0625C17.3928 8.0625 17.8125 7.64277 17.8125 7.125C17.8125 6.60723 17.3928 6.1875 16.875 6.1875C16.3572 6.1875 15.9375 6.60723 15.9375 7.125C15.9375 7.64277 16.3572 8.0625 16.875 8.0625Z" fill="#2D2D2D"/>
</svg>
