<svg width="120" height="120" viewBox="0 0 120 120" fill="none" xmlns="http://www.w3.org/2000/svg">
<path d="M60 80.7692C74.0195 80.7692 85.3846 69.4041 85.3846 55.3846C85.3846 41.3651 74.0195 30 60 30C45.9804 30 34.6154 41.3651 34.6154 55.3846C34.6154 69.4041 45.9804 80.7692 60 80.7692Z" fill="#2D2D2D"/>
<path d="M60 0C48.1331 0 36.5328 3.51894 26.6658 10.1118C16.7989 16.7047 9.10851 26.0754 4.56725 37.039C0.0259971 48.0025 -1.1622 60.0665 1.15291 71.7054C3.46802 83.3443 9.18247 94.0352 17.5736 102.426C25.9648 110.818 36.6557 116.532 48.2946 118.847C59.9335 121.162 71.9974 119.974 82.961 115.433C93.9246 110.891 103.295 103.201 109.888 93.3342C116.481 83.4672 120 71.8669 120 60C119.982 44.0925 113.655 28.8418 102.407 17.5935C91.1582 6.34519 75.9075 0.0180045 60 0V0ZM97.9373 93.6981C94.2323 88.3303 89.4277 83.8121 83.8426 80.4436C77.4202 86.5773 68.8809 90 60 90C51.1191 90 42.5798 86.5773 36.1574 80.4436C30.5723 83.8121 25.7676 88.3303 22.0625 93.6981C15.5578 86.3838 11.3061 77.345 9.81955 67.6702C8.33298 57.9954 9.67488 48.0972 13.6837 39.1674C17.6925 30.2376 24.1972 22.657 32.4146 17.3386C40.632 12.0201 50.2116 9.1905 59.9999 9.1905C69.7883 9.1905 79.3679 12.0201 87.5853 17.3386C95.8027 22.657 102.307 30.2376 106.316 39.1674C110.325 48.0972 111.667 57.9954 110.18 67.6702C108.694 77.345 104.442 86.3838 97.9373 93.6981V93.6981Z" fill="#2D2D2D"/>
</svg>
